<svg width="266" height="266" viewBox="0 0 266 266" fill="none" xmlns="http://www.w3.org/2000/svg">
<rect width="266" height="266" fill="#1E1E1E"/>
<rect width="266" height="266" fill="url(#paint0_linear_0_1)"/>
<rect width="266" height="266" fill="black" fill-opacity="0.2"/>
<path d="M81.45 86.8C101.15 86.8 115.8 91.3 125.4 100.3C135 109.2 139.8 122 139.8 138.7C139.8 149.6 137.45 159.15 132.75 167.35C128.05 175.45 121.2 181.75 112.2 186.25C103.3 190.75 92.6 193 80.1 193C78.5 193 76.4 192.95 73.8 192.85C71.2 192.75 68.5 192.7 65.7 192.7C62.9 192.6 60.4 192.55 58.2 192.55C53.8 192.55 49.45 192.6 45.15 192.7C40.95 192.7 37.6 192.8 35.1 193V190C38.3 189.8 40.7 189.4 42.3 188.8C43.9 188.2 44.95 187 45.45 185.2C46.05 183.4 46.35 180.7 46.35 177.1V102.7C46.35 99 46.05 96.3 45.45 94.6C44.95 92.8 43.85 91.6 42.15 91C40.55 90.3 38.2 89.9 35.1 89.8V86.8C37.6 86.9 40.95 87.05 45.15 87.25C49.45 87.35 53.7 87.35 57.9 87.25C61.5 87.15 65.55 87.05 70.05 86.95C74.65 86.85 78.45 86.8 81.45 86.8ZM81.3 89.5C76.7 89.5 73.7 90.35 72.3 92.05C70.9 93.75 70.2 97.2 70.2 102.4V177.4C70.2 182.6 70.9 186.05 72.3 187.75C73.8 189.45 76.85 190.3 81.45 190.3C89.85 190.3 96.45 188.35 101.25 184.45C106.15 180.45 109.65 174.65 111.75 167.05C113.85 159.45 114.9 150.2 114.9 139.3C114.9 128.1 113.75 118.85 111.45 111.55C109.25 104.15 105.7 98.65 100.8 95.05C95.9 91.35 89.4 89.5 81.3 89.5ZM189.055 84.85C194.955 84.85 199.505 85.5 202.705 86.8C205.905 88 208.655 89.3 210.955 90.7C212.155 91.4 213.105 91.95 213.805 92.35C214.605 92.65 215.355 92.8 216.055 92.8C217.055 92.8 217.755 92.25 218.155 91.15C218.655 90.05 219.055 88.4 219.355 86.2H222.805C222.705 88.1 222.555 90.4 222.355 93.1C222.255 95.7 222.155 99.15 222.055 103.45C222.055 107.75 222.055 113.4 222.055 120.4H218.605C218.205 115.2 217.005 110.15 215.005 105.25C213.005 100.35 210.155 96.35 206.455 93.25C202.855 90.05 198.405 88.45 193.105 88.45C188.305 88.45 184.355 89.8 181.255 92.5C178.155 95.2 176.605 98.95 176.605 103.75C176.605 107.75 177.605 111.2 179.605 114.1C181.605 116.9 184.505 119.65 188.305 122.35C192.205 125.05 196.905 128.3 202.405 132.1C207.205 135.2 211.505 138.3 215.305 141.4C219.105 144.5 222.155 148 224.455 151.9C226.755 155.8 227.905 160.45 227.905 165.85C227.905 172.45 226.155 177.9 222.655 182.2C219.255 186.5 214.755 189.75 209.155 191.95C203.555 194.05 197.405 195.1 190.705 195.1C184.505 195.1 179.555 194.5 175.855 193.3C172.155 192.1 169.055 190.85 166.555 189.55C164.355 188.15 162.655 187.45 161.455 187.45C160.455 187.45 159.705 188 159.205 189.1C158.805 190.2 158.455 191.85 158.155 194.05H154.705C154.905 191.65 155.005 188.85 155.005 185.65C155.105 182.45 155.155 178.3 155.155 173.2C155.255 168 155.305 161.45 155.305 153.55H158.755C159.155 160.15 160.255 166.35 162.055 172.15C163.955 177.85 166.805 182.45 170.605 185.95C174.505 189.45 179.655 191.2 186.055 191.2C189.555 191.2 192.655 190.6 195.355 189.4C198.155 188.1 200.405 186.2 202.105 183.7C203.805 181.2 204.655 178.1 204.655 174.4C204.655 170.2 203.655 166.55 201.655 163.45C199.755 160.35 197.105 157.45 193.705 154.75C190.405 152.05 186.555 149.3 182.155 146.5C177.455 143.4 173.055 140.3 168.955 137.2C164.855 134.1 161.555 130.55 159.055 126.55C156.655 122.55 155.455 117.8 155.455 112.3C155.455 106 157.005 100.85 160.105 96.85C163.305 92.75 167.455 89.75 172.555 87.85C177.755 85.85 183.255 84.85 189.055 84.85Z" fill="#C8B89A"/>
<defs>
<linearGradient id="paint0_linear_0_1" x1="11.0415" y1="10.0377" x2="248.936" y2="266" gradientUnits="userSpaceOnUse">
<stop offset="0.28" stop-color="#142F3D" stop-opacity="0"/>
<stop offset="1" stop-color="#142F3D"/>
</linearGradient>
</defs>
</svg>
